<?xml version = "1.0" encoding = "UTF-8"?>
<svg width="280" height="280" xmlns="http://www.w3.org/2000/svg">
	<polygon points="20,20 60,20 60,60 20,60" fill="rgb(255,255,255)" stroke="none" />
	<polygon points="60,20 100,20 100,60 60,60" fill="rgb(255,255,255)" stroke="none" />
	<polygon points="100,20 140,20 140,60 100,60" fill="rgb(255,255,255)" stroke="none" />
	<polygon points="140,20 180,20 180,60 140,60" fill="rgb(255,255,255)" stroke="none" />
	<polygon points="180,20 220,20 220,60 180,60" fill="rgb(255,255,255)" stroke="none" />
	<polygon points="220,20 260,20 260,60 220,60" fill="rgb(255,255,255)" stroke="none" />
	<polygon points="20,60 60,60 60,100 20,100" fill="rgb(255,255,255)" stroke="none" />
	<polygon points="60,60 100,60 100,100 60,100" fill="rgb(255,255,255)" stroke="none" />
	<polygon points="100,60 140,60 140,100 100,100" fill="rgb(255,255,255)" stroke="none" />
	<polygon points="140,60 180,60 180,100 140,100" fill="rgb(255,255,255)" stroke="none" />
	<polygon points="180,60 220,60 220,100 180,100" fill="rgb(255,255,255)" stroke="none" />
	<polygon points="220,60 260,60 260,100 220,100" fill="rgb(255,255,255)" stroke="none" />
	<polygon points="20,100 60,100 60,140 20,140" fill="rgb(255,255,255)" stroke="none" />
	<polygon points="60,100 100,100 100,140 60,140" fill="rgb(255,255,255)" stroke="none" />
	<polygon points="100,100 140,100 140,140 100,140" fill="rgb(255,255,255)" stroke="none" />
	<polygon points="140,100 180,100 180,140 140,140" fill="rgb(255,255,255)" stroke="none" />
	<polygon points="180,100 220,100 220,140 180,140" fill="rgb(255,255,255)" stroke="none" />
	<polygon points="220,100 260,100 260,140 220,140" fill="rgb(255,255,255)" stroke="none" />
	<polygon points="20,140 60,140 60,180 20,180" fill="rgb(255,255,255)" stroke="none" />
	<polygon points="60,140 100,140 100,180 60,180" fill="rgb(255,255,255)" stroke="none" />
	<polygon points="100,140 140,140 140,180 100,180" fill="rgb(255,255,255)" stroke="none" />
	<polygon points="140,140 180,140 180,180 140,180" fill="rgb(255,255,255)" stroke="none" />
	<polygon points="180,140 220,140 220,180 180,180" fill="rgb(255,255,255)" stroke="none" />
	<polygon points="220,140 260,140 260,180 220,180" fill="rgb(255,255,255)" stroke="none" />
	<polygon points="20,180 60,180 60,220 20,220" fill="rgb(255,255,255)" stroke="none" />
	<polygon points="60,180 100,180 100,220 60,220" fill="rgb(255,255,255)" stroke="none" />
	<polygon points="100,180 140,180 140,220 100,220" fill="rgb(255,255,255)" stroke="none" />
	<polygon points="140,180 180,180 180,220 140,220" fill="rgb(255,255,255)" stroke="none" />
	<polygon points="180,180 220,180 220,220 180,220" fill="rgb(255,255,255)" stroke="none" />
	<polygon points="220,180 260,180 260,220 220,220" fill="rgb(255,255,255)" stroke="none" />
	<polygon points="20,220 60,220 60,260 20,260" fill="rgb(255,255,255)" stroke="none" />
	<polygon points="60,220 100,220 100,260 60,260" fill="rgb(255,255,255)" stroke="none" />
	<polygon points="100,220 140,220 140,260 100,260" fill="rgb(255,255,255)" stroke="none" />
	<polygon points="140,220 180,220 180,260 140,260" fill="rgb(255,255,255)" stroke="none" />
	<polygon points="180,220 220,220 220,260 180,260" fill="rgb(255,255,255)" stroke="none" />
	<polygon points="220,220 260,220 260,260 220,260" fill="rgb(255,255,255)" stroke="none" />
	<text transform="translate(40,49.239998) rotate(0)" font-size="28" font-family="monospace" text-anchor="middle" fill="rgb(0,0,0)" stroke="none">1</text>
	<text transform="translate(120,49.239998) rotate(0)" font-size="28" font-family="monospace" text-anchor="middle" fill="rgb(0,0,0)" stroke="none">2</text>
	<text transform="translate(240,49.239998) rotate(0)" font-size="28" font-family="monospace" text-anchor="middle" fill="rgb(0,0,0)" stroke="none">4</text>
	<text transform="translate(200,89.24) rotate(0)" font-size="28" font-family="monospace" text-anchor="middle" fill="rgb(0,0,0)" stroke="none">5</text>
	<text transform="translate(80,129.23999) rotate(0)" font-size="28" font-family="monospace" text-anchor="middle" fill="rgb(0,0,0)" stroke="none">4</text>
	<text transform="translate(160,129.23999) rotate(0)" font-size="28" font-family="monospace" text-anchor="middle" fill="rgb(0,0,0)" stroke="none">2</text>
	<text transform="translate(120,169.23999) rotate(0)" font-size="28" font-family="monospace" text-anchor="middle" fill="rgb(0,0,0)" stroke="none">5</text>
	<text transform="translate(200,209.23999) rotate(0)" font-size="28" font-family="monospace" text-anchor="middle" fill="rgb(0,0,0)" stroke="none">1</text>
	<text transform="translate(40,249.23999) rotate(0)" font-size="28" font-family="monospace" text-anchor="middle" fill="rgb(0,0,0)" stroke="none">6</text>
	<line x1="60" y1="220" x2="20" y2="220" fill="none" stroke="rgb(200,200,200)" stroke-width="2" stroke-linecap="round" stroke-linejoin="round" />
	<line x1="60" y1="220" x2="60" y2="260" fill="none" stroke="rgb(200,200,200)" stroke-width="2" stroke-linecap="round" stroke-linejoin="round" />
	<line x1="100" y1="220" x2="60" y2="220" fill="none" stroke="rgb(200,200,200)" stroke-width="2" stroke-linecap="round" stroke-linejoin="round" />
	<line x1="260" y1="60" x2="220" y2="60" fill="none" stroke="rgb(200,200,200)" stroke-width="2" stroke-linecap="round" stroke-linejoin="round" />
	<line x1="220" y1="140" x2="220" y2="180" fill="none" stroke="rgb(200,200,200)" stroke-width="2" stroke-linecap="round" stroke-linejoin="round" />
	<line x1="60" y1="140" x2="20" y2="140" fill="none" stroke="rgb(200,200,200)" stroke-width="2" stroke-linecap="round" stroke-linejoin="round" />
	<line x1="100" y1="140" x2="100" y2="180" fill="none" stroke="rgb(200,200,200)" stroke-width="2" stroke-linecap="round" stroke-linejoin="round" />
	<line x1="180" y1="60" x2="140" y2="60" fill="none" stroke="rgb(200,200,200)" stroke-width="2" stroke-linecap="round" stroke-linejoin="round" />
	<line x1="140" y1="220" x2="100" y2="220" fill="none" stroke="rgb(200,200,200)" stroke-width="2" stroke-linecap="round" stroke-linejoin="round" />
	<line x1="260" y1="220" x2="220" y2="220" fill="none" stroke="rgb(200,200,200)" stroke-width="2" stroke-linecap="round" stroke-linejoin="round" />
	<line x1="60" y1="60" x2="20" y2="60" fill="none" stroke="rgb(200,200,200)" stroke-width="2" stroke-linecap="round" stroke-linejoin="round" />
	<line x1="60" y1="180" x2="60" y2="220" fill="none" stroke="rgb(200,200,200)" stroke-width="2" stroke-linecap="round" stroke-linejoin="round" />
	<line x1="180" y1="100" x2="180" y2="140" fill="none" stroke="rgb(200,200,200)" stroke-width="2" stroke-linecap="round" stroke-linejoin="round" />
	<line x1="220" y1="140" x2="180" y2="140" fill="none" stroke="rgb(200,200,200)" stroke-width="2" stroke-linecap="round" stroke-linejoin="round" />
	<line x1="180" y1="140" x2="140" y2="140" fill="none" stroke="rgb(200,200,200)" stroke-width="2" stroke-linecap="round" stroke-linejoin="round" />
	<line x1="220" y1="100" x2="220" y2="140" fill="none" stroke="rgb(200,200,200)" stroke-width="2" stroke-linecap="round" stroke-linejoin="round" />
	<line x1="180" y1="220" x2="140" y2="220" fill="none" stroke="rgb(200,200,200)" stroke-width="2" stroke-linecap="round" stroke-linejoin="round" />
	<line x1="220" y1="180" x2="220" y2="220" fill="none" stroke="rgb(200,200,200)" stroke-width="2" stroke-linecap="round" stroke-linejoin="round" />
	<line x1="180" y1="220" x2="180" y2="260" fill="none" stroke="rgb(200,200,200)" stroke-width="2" stroke-linecap="round" stroke-linejoin="round" />
	<line x1="100" y1="180" x2="100" y2="220" fill="none" stroke="rgb(200,200,200)" stroke-width="2" stroke-linecap="round" stroke-linejoin="round" />
	<line x1="60" y1="20" x2="60" y2="60" fill="none" stroke="rgb(200,200,200)" stroke-width="2" stroke-linecap="round" stroke-linejoin="round" />
	<line x1="100" y1="100" x2="100" y2="140" fill="none" stroke="rgb(200,200,200)" stroke-width="2" stroke-linecap="round" stroke-linejoin="round" />
	<line x1="220" y1="220" x2="180" y2="220" fill="none" stroke="rgb(200,200,200)" stroke-width="2" stroke-linecap="round" stroke-linejoin="round" />
	<line x1="180" y1="20" x2="180" y2="60" fill="none" stroke="rgb(200,200,200)" stroke-width="2" stroke-linecap="round" stroke-linejoin="round" />
	<line x1="140" y1="140" x2="100" y2="140" fill="none" stroke="rgb(200,200,200)" stroke-width="2" stroke-linecap="round" stroke-linejoin="round" />
	<line x1="100" y1="220" x2="100" y2="260" fill="none" stroke="rgb(200,200,200)" stroke-width="2" stroke-linecap="round" stroke-linejoin="round" />
	<line x1="100" y1="60" x2="100" y2="100" fill="none" stroke="rgb(200,200,200)" stroke-width="2" stroke-linecap="round" stroke-linejoin="round" />
	<line x1="180" y1="60" x2="180" y2="100" fill="none" stroke="rgb(200,200,200)" stroke-width="2" stroke-linecap="round" stroke-linejoin="round" />
	<line x1="260" y1="140" x2="220" y2="140" fill="none" stroke="rgb(200,200,200)" stroke-width="2" stroke-linecap="round" stroke-linejoin="round" />
	<line x1="180" y1="140" x2="180" y2="180" fill="none" stroke="rgb(200,200,200)" stroke-width="2" stroke-linecap="round" stroke-linejoin="round" />
	<line x1="100" y1="140" x2="60" y2="140" fill="none" stroke="rgb(200,200,200)" stroke-width="2" stroke-linecap="round" stroke-linejoin="round" />
	<line x1="180" y1="180" x2="180" y2="220" fill="none" stroke="rgb(200,200,200)" stroke-width="2" stroke-linecap="round" stroke-linejoin="round" />
	<line x1="220" y1="20" x2="220" y2="60" fill="none" stroke="rgb(200,200,200)" stroke-width="2" stroke-linecap="round" stroke-linejoin="round" />
	<line x1="60" y1="60" x2="60" y2="100" fill="none" stroke="rgb(200,200,200)" stroke-width="2" stroke-linecap="round" stroke-linejoin="round" />
	<line x1="100" y1="60" x2="60" y2="60" fill="none" stroke="rgb(200,200,200)" stroke-width="2" stroke-linecap="round" stroke-linejoin="round" />
	<line x1="60" y1="100" x2="60" y2="140" fill="none" stroke="rgb(200,200,200)" stroke-width="2" stroke-linecap="round" stroke-linejoin="round" />
	<line x1="220" y1="60" x2="180" y2="60" fill="none" stroke="rgb(200,200,200)" stroke-width="2" stroke-linecap="round" stroke-linejoin="round" />
	<line x1="220" y1="60" x2="220" y2="100" fill="none" stroke="rgb(200,200,200)" stroke-width="2" stroke-linecap="round" stroke-linejoin="round" />
	<line x1="220" y1="220" x2="220" y2="260" fill="none" stroke="rgb(200,200,200)" stroke-width="2" stroke-linecap="round" stroke-linejoin="round" />
	<line x1="60" y1="140" x2="60" y2="180" fill="none" stroke="rgb(200,200,200)" stroke-width="2" stroke-linecap="round" stroke-linejoin="round" />
	<line x1="100" y1="20" x2="100" y2="60" fill="none" stroke="rgb(200,200,200)" stroke-width="2" stroke-linecap="round" stroke-linejoin="round" />
	<line x1="140" y1="60" x2="100" y2="60" fill="none" stroke="rgb(200,200,200)" stroke-width="2" stroke-linecap="round" stroke-linejoin="round" />
	<line x1="140" y1="220" x2="140" y2="260" fill="none" stroke="rgb(0,0,0)" stroke-width="4" stroke-linecap="round" stroke-linejoin="round" />
	<line x1="260" y1="100" x2="260" y2="140" fill="none" stroke="rgb(0,0,0)" stroke-width="4" stroke-linecap="round" stroke-linejoin="round" />
	<line x1="180" y1="260" x2="140" y2="260" fill="none" stroke="rgb(0,0,0)" stroke-width="4" stroke-linecap="round" stroke-linejoin="round" />
	<line x1="20" y1="220" x2="20" y2="180" fill="none" stroke="rgb(0,0,0)" stroke-width="4" stroke-linecap="round" stroke-linejoin="round" />
	<line x1="220" y1="100" x2="180" y2="100" fill="none" stroke="rgb(0,0,0)" stroke-width="4" stroke-linecap="round" stroke-linejoin="round" />
	<line x1="20" y1="100" x2="20" y2="60" fill="none" stroke="rgb(0,0,0)" stroke-width="4" stroke-linecap="round" stroke-linejoin="round" />
	<line x1="100" y1="100" x2="60" y2="100" fill="none" stroke="rgb(0,0,0)" stroke-width="4" stroke-linecap="round" stroke-linejoin="round" />
	<line x1="220" y1="180" x2="180" y2="180" fill="none" stroke="rgb(0,0,0)" stroke-width="4" stroke-linecap="round" stroke-linejoin="round" />
	<line x1="100" y1="180" x2="60" y2="180" fill="none" stroke="rgb(0,0,0)" stroke-width="4" stroke-linecap="round" stroke-linejoin="round" />
	<line x1="20" y1="260" x2="20" y2="220" fill="none" stroke="rgb(0,0,0)" stroke-width="4" stroke-linecap="round" stroke-linejoin="round" />
	<line x1="60" y1="180" x2="20" y2="180" fill="none" stroke="rgb(0,0,0)" stroke-width="4" stroke-linecap="round" stroke-linejoin="round" />
	<line x1="260" y1="220" x2="260" y2="260" fill="none" stroke="rgb(0,0,0)" stroke-width="4" stroke-linecap="round" stroke-linejoin="round" />
	<line x1="60" y1="100" x2="20" y2="100" fill="none" stroke="rgb(0,0,0)" stroke-width="4" stroke-linecap="round" stroke-linejoin="round" />
	<line x1="140" y1="180" x2="140" y2="220" fill="none" stroke="rgb(0,0,0)" stroke-width="4" stroke-linecap="round" stroke-linejoin="round" />
	<line x1="140" y1="140" x2="140" y2="180" fill="none" stroke="rgb(0,0,0)" stroke-width="4" stroke-linecap="round" stroke-linejoin="round" />
	<line x1="20" y1="20" x2="60" y2="20" fill="none" stroke="rgb(0,0,0)" stroke-width="4" stroke-linecap="round" stroke-linejoin="round" />
	<line x1="260" y1="180" x2="220" y2="180" fill="none" stroke="rgb(0,0,0)" stroke-width="4" stroke-linecap="round" stroke-linejoin="round" />
	<line x1="180" y1="20" x2="220" y2="20" fill="none" stroke="rgb(0,0,0)" stroke-width="4" stroke-linecap="round" stroke-linejoin="round" />
	<line x1="140" y1="100" x2="100" y2="100" fill="none" stroke="rgb(0,0,0)" stroke-width="4" stroke-linecap="round" stroke-linejoin="round" />
	<line x1="100" y1="20" x2="140" y2="20" fill="none" stroke="rgb(0,0,0)" stroke-width="4" stroke-linecap="round" stroke-linejoin="round" />
	<line x1="140" y1="60" x2="140" y2="100" fill="none" stroke="rgb(0,0,0)" stroke-width="4" stroke-linecap="round" stroke-linejoin="round" />
	<line x1="260" y1="260" x2="220" y2="260" fill="none" stroke="rgb(0,0,0)" stroke-width="4" stroke-linecap="round" stroke-linejoin="round" />
	<line x1="20" y1="180" x2="20" y2="140" fill="none" stroke="rgb(0,0,0)" stroke-width="4" stroke-linecap="round" stroke-linejoin="round" />
	<line x1="220" y1="260" x2="180" y2="260" fill="none" stroke="rgb(0,0,0)" stroke-width="4" stroke-linecap="round" stroke-linejoin="round" />
	<line x1="20" y1="140" x2="20" y2="100" fill="none" stroke="rgb(0,0,0)" stroke-width="4" stroke-linecap="round" stroke-linejoin="round" />
	<line x1="260" y1="100" x2="220" y2="100" fill="none" stroke="rgb(0,0,0)" stroke-width="4" stroke-linecap="round" stroke-linejoin="round" />
	<line x1="260" y1="140" x2="260" y2="180" fill="none" stroke="rgb(0,0,0)" stroke-width="4" stroke-linecap="round" stroke-linejoin="round" />
	<line x1="140" y1="180" x2="100" y2="180" fill="none" stroke="rgb(0,0,0)" stroke-width="4" stroke-linecap="round" stroke-linejoin="round" />
	<line x1="260" y1="180" x2="260" y2="220" fill="none" stroke="rgb(0,0,0)" stroke-width="4" stroke-linecap="round" stroke-linejoin="round" />
	<line x1="60" y1="260" x2="20" y2="260" fill="none" stroke="rgb(0,0,0)" stroke-width="4" stroke-linecap="round" stroke-linejoin="round" />
	<line x1="60" y1="20" x2="100" y2="20" fill="none" stroke="rgb(0,0,0)" stroke-width="4" stroke-linecap="round" stroke-linejoin="round" />
	<line x1="140" y1="20" x2="180" y2="20" fill="none" stroke="rgb(0,0,0)" stroke-width="4" stroke-linecap="round" stroke-linejoin="round" />
	<line x1="100" y1="260" x2="60" y2="260" fill="none" stroke="rgb(0,0,0)" stroke-width="4" stroke-linecap="round" stroke-linejoin="round" />
	<line x1="180" y1="180" x2="140" y2="180" fill="none" stroke="rgb(0,0,0)" stroke-width="4" stroke-linecap="round" stroke-linejoin="round" />
	<line x1="180" y1="100" x2="140" y2="100" fill="none" stroke="rgb(0,0,0)" stroke-width="4" stroke-linecap="round" stroke-linejoin="round" />
	<line x1="140" y1="100" x2="140" y2="140" fill="none" stroke="rgb(0,0,0)" stroke-width="4" stroke-linecap="round" stroke-linejoin="round" />
	<line x1="140" y1="20" x2="140" y2="60" fill="none" stroke="rgb(0,0,0)" stroke-width="4" stroke-linecap="round" stroke-linejoin="round" />
	<line x1="260" y1="60" x2="260" y2="100" fill="none" stroke="rgb(0,0,0)" stroke-width="4" stroke-linecap="round" stroke-linejoin="round" />
	<line x1="140" y1="260" x2="100" y2="260" fill="none" stroke="rgb(0,0,0)" stroke-width="4" stroke-linecap="round" stroke-linejoin="round" />
	<line x1="220" y1="20" x2="260" y2="20" fill="none" stroke="rgb(0,0,0)" stroke-width="4" stroke-linecap="round" stroke-linejoin="round" />
	<line x1="20" y1="60" x2="20" y2="20" fill="none" stroke="rgb(0,0,0)" stroke-width="4" stroke-linecap="round" stroke-linejoin="round" />
	<line x1="260" y1="20" x2="260" y2="60" fill="none" stroke="rgb(0,0,0)" stroke-width="4" stroke-linecap="round" stroke-linejoin="round" />
</svg>
